# xmcd
#
# Track frame offsets: 
#        187
#        23255
#        40287
#        59952
#
# Disc length: 1060 seconds
#
# Revision: 1
# Processed by: cddbd v1.5.2PL0 Copyright (c) Steve Scherf et al.
# Submitted via: ExactAudioCopy v1.0b6
#
DISCID=2e042204
DTITLE=The Style Council - Promised Land (JP CD)
DYEAR=1989
DGENRE=Rock
TTITLE0=Promised Land (Longer Version)
TTITLE1=Promised Land (Pianopella)
TTITLE2=Can You Still Love Me? (Dub)
TTITLE3=Can You Still Love Me? (Vocal)
EXTD=YEAR: 1989
EXTT0=
EXTT1=
EXTT2=
EXTT3=
PLAYORDER=
